<?xml version="1.0" encoding="UTF-8"?>
<svg id="Capa_1" xmlns="http://www.w3.org/2000/svg" version="1.1" viewBox="0 0 1920 1080">
  <!-- Generator: Adobe Illustrator 30.1.0, SVG Export Plug-In . SVG Version: 2.1.1 Build 136)  -->
  <defs>
    <style>
      .st0 {
        fill: #fff;
      }
    </style>
  </defs>
  <path class="st0" d="M904.8,186.9v383c-.03,18.99-6.16,37.47-17.5,52.7l-195.5,262.1c-10.47,14.05-26.97,22.32-44.5,22.3h-127.4c-7.23.03-13.13-5.8-13.16-13.04-.01-2.18.53-4.34,1.56-6.26L879.9,180.8c2.27-4.36,6.78-7.1,11.7-7.1h0c7.29,0,13.2,5.91,13.2,13.2h0Z"/>
  <path class="st0" d="M938,186.3v398.9c-.06,6.9,5.5,12.54,12.4,12.6h215c6.96.01,12.61-5.62,12.62-12.58,0-2.1-.52-4.17-1.52-6.02l-214.8-398.8c-2.18-4.11-6.45-6.69-11.1-6.7h0c-6.96,0-12.6,5.64-12.6,12.6h0Z"/>
  <path class="st0" d="M950.7,632.1h241.1c4.64-.04,8.93,2.45,11.2,6.5l136.6,250.5c4.4,8.1-1.7,17.9-11.3,17.9h-150.1c-3.65.03-7.15-1.49-9.6-4.2l-227.4-250.4c-7.2-7.9-1.4-20.3,9.5-20.3h0Z"/>
</svg>