<svg id="Capa_1" data-name="Capa 1" xmlns="http://www.w3.org/2000/svg" viewBox="0 0 1920 1080"><defs><style>.cls-1{opacity:0.18;}.cls-2{fill:#1d2c43;opacity:0.19;}</style></defs><g class="cls-1"><path class="cls-2" d="M157.8,6.1V144.3a31.9,31.9,0,0,1-6.3,19L81,257.8a19.8,19.8,0,0,1-16,8H19a4.7,4.7,0,0,1-4.2-6.9l134-255A5,5,0,0,1,153,1.4h0A4.7,4.7,0,0,1,157.8,6.1Z"/><path class="cls-2" d="M169.8,5.9V149.8a4.5,4.5,0,0,0,4.5,4.5h77.5a4.5,4.5,0,0,0,4-6.7L178.4,3.8a4.6,4.6,0,0,0-4.1-2.4h0A4.5,4.5,0,0,0,169.8,5.9Z"/><path class="cls-2" d="M174.4,166.7h86.9a4.6,4.6,0,0,1,4.1,2.4l49.2,90.3a4.4,4.4,0,0,1-4,6.4H256.4a4.3,4.3,0,0,1-3.4-1.5L170.9,174A4.4,4.4,0,0,1,174.4,166.7Z"/><path class="cls-2" d="M496.3,6.1V144.3a31.9,31.9,0,0,1-6.3,19l-70.5,94.5a19.8,19.8,0,0,1-16,8h-46a4.7,4.7,0,0,1-4.2-6.9l134-255a5,5,0,0,1,4.3-2.5h0A4.7,4.7,0,0,1,496.3,6.1Z"/><path class="cls-2" d="M508.3,5.9V149.8a4.5,4.5,0,0,0,4.6,4.5h77.4a4.5,4.5,0,0,0,4-6.7L516.9,3.8a4.6,4.6,0,0,0-4-2.4h0A4.5,4.5,0,0,0,508.3,5.9Z"/><path class="cls-2" d="M512.9,166.7h86.9a4.6,4.6,0,0,1,4.1,2.4l49.2,90.3a4.4,4.4,0,0,1-4,6.4H594.9a4.5,4.5,0,0,1-3.4-1.5L509.4,174A4.4,4.4,0,0,1,512.9,166.7Z"/><path class="cls-2" d="M834.8,6.1V144.3a31.9,31.9,0,0,1-6.3,19L758,257.8a19.7,19.7,0,0,1-16,8H696a4.8,4.8,0,0,1-4.2-6.9L825.9,3.9a4.8,4.8,0,0,1,4.2-2.5h0A4.7,4.7,0,0,1,834.8,6.1Z"/><path class="cls-2" d="M846.8,5.9V149.8a4.6,4.6,0,0,0,4.6,4.5h77.4a4.5,4.5,0,0,0,4-6.7L855.4,3.8a4.6,4.6,0,0,0-4-2.4h0A4.6,4.6,0,0,0,846.8,5.9Z"/><path class="cls-2" d="M851.4,166.7h87a4.5,4.5,0,0,1,4,2.4l49.2,90.3a4.4,4.4,0,0,1-4,6.4H933.4a4.5,4.5,0,0,1-3.4-1.5L848,174A4.4,4.4,0,0,1,851.4,166.7Z"/><path class="cls-2" d="M1173.3,6.1V144.3a31.9,31.9,0,0,1-6.3,19l-70.4,94.5a20,20,0,0,1-16.1,8h-46a4.8,4.8,0,0,1-4.2-6.9l134.1-255a4.8,4.8,0,0,1,4.2-2.5h0A4.7,4.7,0,0,1,1173.3,6.1Z"/><path class="cls-2" d="M1185.3,5.9V149.8a4.6,4.6,0,0,0,4.6,4.5h77.4a4.6,4.6,0,0,0,4.1-6.7L1193.9,3.8a4.5,4.5,0,0,0-4-2.4h0A4.6,4.6,0,0,0,1185.3,5.9Z"/><path class="cls-2" d="M1189.9,166.7h87a4.5,4.5,0,0,1,4,2.4l49.3,90.3a4.4,4.4,0,0,1-4.1,6.4h-54.2a4.5,4.5,0,0,1-3.4-1.5l-82-90.3A4.4,4.4,0,0,1,1189.9,166.7Z"/><path class="cls-2" d="M157.8,408.4V546.5a31.9,31.9,0,0,1-6.3,19L81,660a19.9,19.9,0,0,1-16,8.1H19a4.7,4.7,0,0,1-4.2-7l134-255a5,5,0,0,1,4.2-2.5h0A4.7,4.7,0,0,1,157.8,408.4Z"/><path class="cls-2" d="M169.8,408.1V552a4.6,4.6,0,0,0,4.5,4.6h77.5a4.6,4.6,0,0,0,4-6.8L178.4,406a4.6,4.6,0,0,0-4.1-2.4h0A4.5,4.5,0,0,0,169.8,408.1Z"/><path class="cls-2" d="M174.4,568.9h86.9a4.6,4.6,0,0,1,4.1,2.4l49.2,90.3a4.4,4.4,0,0,1-4,6.5H256.4a4.7,4.7,0,0,1-3.4-1.5l-82.1-90.4A4.4,4.4,0,0,1,174.4,568.9Z"/><path class="cls-2" d="M496.3,408.4V546.5a31.9,31.9,0,0,1-6.3,19L419.5,660a19.9,19.9,0,0,1-16,8.1h-46a4.7,4.7,0,0,1-4.2-7l134-255a5,5,0,0,1,4.3-2.5h0A4.7,4.7,0,0,1,496.3,408.4Z"/><path class="cls-2" d="M508.3,408.1V552a4.6,4.6,0,0,0,4.6,4.6h77.4a4.6,4.6,0,0,0,4-6.8L516.9,406a4.6,4.6,0,0,0-4-2.4h0A4.5,4.5,0,0,0,508.3,408.1Z"/><path class="cls-2" d="M512.9,568.9h86.9a4.6,4.6,0,0,1,4.1,2.4l49.2,90.3a4.4,4.4,0,0,1-4,6.5H594.9a4.9,4.9,0,0,1-3.4-1.5l-82.1-90.4A4.4,4.4,0,0,1,512.9,568.9Z"/><path class="cls-2" d="M834.8,408.4V546.5a31.9,31.9,0,0,1-6.3,19L758,660a19.8,19.8,0,0,1-16,8.1H696a4.8,4.8,0,0,1-4.2-7l134.1-255a4.8,4.8,0,0,1,4.2-2.5h0A4.7,4.7,0,0,1,834.8,408.4Z"/><path class="cls-2" d="M846.8,408.1V552a4.7,4.7,0,0,0,4.6,4.6h77.4a4.6,4.6,0,0,0,4-6.8L855.4,406a4.6,4.6,0,0,0-4-2.4h0A4.6,4.6,0,0,0,846.8,408.1Z"/><path class="cls-2" d="M851.4,568.9h87a4.5,4.5,0,0,1,4,2.4l49.2,90.3a4.4,4.4,0,0,1-4,6.5H933.4a4.9,4.9,0,0,1-3.4-1.5l-82-90.4A4.4,4.4,0,0,1,851.4,568.9Z"/><path class="cls-2" d="M1173.3,408.4V546.5a31.9,31.9,0,0,1-6.3,19L1096.6,660a20.1,20.1,0,0,1-16.1,8.1h-46a4.8,4.8,0,0,1-4.2-7l134.1-255a4.8,4.8,0,0,1,4.2-2.5h0A4.7,4.7,0,0,1,1173.3,408.4Z"/><path class="cls-2" d="M1185.3,408.1V552a4.7,4.7,0,0,0,4.6,4.6h77.4a4.6,4.6,0,0,0,4.1-6.8L1193.9,406a4.5,4.5,0,0,0-4-2.4h0A4.6,4.6,0,0,0,1185.3,408.1Z"/><path class="cls-2" d="M1189.9,568.9h87a4.5,4.5,0,0,1,4,2.4l49.3,90.3a4.5,4.5,0,0,1-4.1,6.5h-54.2a4.9,4.9,0,0,1-3.4-1.5l-82-90.4A4.4,4.4,0,0,1,1189.9,568.9Z"/><path class="cls-2" d="M1339,531.3V387.4a4.5,4.5,0,0,0-4.6-4.5H1257a4.5,4.5,0,0,0-4,6.7l77.4,143.8a4.6,4.6,0,0,0,4,2.4h0A4.5,4.5,0,0,0,1339,531.3Z"/><path class="cls-2" d="M1334.4,370.5h-86.9a4.6,4.6,0,0,1-4.1-2.4l-49.2-90.3a4.4,4.4,0,0,1,4-6.4h54.2a4.3,4.3,0,0,1,3.4,1.5l82.1,90.3A4.4,4.4,0,0,1,1334.4,370.5Z"/><path class="cls-2" d="M1012.5,531.1V392.9a31.9,31.9,0,0,1,6.3-19l70.5-94.5a19.7,19.7,0,0,1,16-8h46a4.8,4.8,0,0,1,4.2,6.9l-134.1,255a4.8,4.8,0,0,1-4.2,2.5h0A4.7,4.7,0,0,1,1012.5,531.1Z"/><path class="cls-2" d="M1000.5,531.3V387.4a4.6,4.6,0,0,0-4.6-4.5H918.5a4.5,4.5,0,0,0-4,6.7l77.4,143.8a4.6,4.6,0,0,0,4,2.4h0A4.6,4.6,0,0,0,1000.5,531.3Z"/><path class="cls-2" d="M995.9,370.5H909a4.6,4.6,0,0,1-4.1-2.4l-49.2-90.3a4.4,4.4,0,0,1,4-6.4h54.2a4.5,4.5,0,0,1,3.4,1.5l82,90.3A4.4,4.4,0,0,1,995.9,370.5Z"/><path class="cls-2" d="M674,531.1V392.9a31.9,31.9,0,0,1,6.3-19l70.5-94.5a19.7,19.7,0,0,1,16-8h46a4.8,4.8,0,0,1,4.2,6.9l-134.1,255a4.8,4.8,0,0,1-4.2,2.5h0A4.7,4.7,0,0,1,674,531.1Z"/><path class="cls-2" d="M662,531.3V387.4a4.6,4.6,0,0,0-4.6-4.5H580a4.6,4.6,0,0,0-4.1,6.7l77.5,143.8a4.5,4.5,0,0,0,4,2.4h0A4.6,4.6,0,0,0,662,531.3Z"/><path class="cls-2" d="M657.4,370.5h-87a4.5,4.5,0,0,1-4-2.4l-49.3-90.3a4.4,4.4,0,0,1,4.1-6.4h54.2a4.5,4.5,0,0,1,3.4,1.5l82,90.3A4.4,4.4,0,0,1,657.4,370.5Z"/><path class="cls-2" d="M335.4,531.1V392.9a32,32,0,0,1,6.4-19l70.4-94.5a20,20,0,0,1,16.1-8h45.9a4.8,4.8,0,0,1,4.3,6.9l-134.1,255a4.8,4.8,0,0,1-4.2,2.5h0A4.8,4.8,0,0,1,335.4,531.1Z"/><path class="cls-2" d="M323.5,531.3V387.4a4.6,4.6,0,0,0-4.6-4.5H241.4a4.6,4.6,0,0,0-4,6.7l77.5,143.8a4.5,4.5,0,0,0,4,2.4h0A4.6,4.6,0,0,0,323.5,531.3Z"/><path class="cls-2" d="M318.9,370.5h-87a4.5,4.5,0,0,1-4-2.4l-49.3-90.3a4.4,4.4,0,0,1,4.1-6.4h54.1a4.5,4.5,0,0,1,3.5,1.5l82,90.3A4.4,4.4,0,0,1,318.9,370.5Z"/><path class="cls-2" d="M157.8,817.4V955.6a31.9,31.9,0,0,1-6.3,19L81,1069.1a20.1,20.1,0,0,1-16,8H19a4.7,4.7,0,0,1-4.2-6.9l134-255a4.8,4.8,0,0,1,4.2-2.5h0A4.7,4.7,0,0,1,157.8,817.4Z"/><path class="cls-2" d="M169.8,817.2V961.1a4.5,4.5,0,0,0,4.5,4.5h77.5a4.5,4.5,0,0,0,4-6.7L178.4,815.1a4.6,4.6,0,0,0-4.1-2.4h0A4.5,4.5,0,0,0,169.8,817.2Z"/><path class="cls-2" d="M174.4,978h86.9a4.7,4.7,0,0,1,4.1,2.3l49.2,90.4a4.4,4.4,0,0,1-4,6.4H256.4a4.3,4.3,0,0,1-3.4-1.5l-82.1-90.3A4.4,4.4,0,0,1,174.4,978Z"/><path class="cls-2" d="M496.3,817.4V955.6a31.9,31.9,0,0,1-6.3,19l-70.5,94.5a20.1,20.1,0,0,1-16,8h-46a4.7,4.7,0,0,1-4.2-6.9l134-255a4.8,4.8,0,0,1,4.3-2.5h0A4.7,4.7,0,0,1,496.3,817.4Z"/><path class="cls-2" d="M508.3,817.2V961.1a4.5,4.5,0,0,0,4.6,4.5h77.4a4.5,4.5,0,0,0,4-6.7L516.9,815.1a4.6,4.6,0,0,0-4-2.4h0A4.5,4.5,0,0,0,508.3,817.2Z"/><path class="cls-2" d="M512.9,978h86.9a4.7,4.7,0,0,1,4.1,2.3l49.2,90.4a4.4,4.4,0,0,1-4,6.4H594.9a4.5,4.5,0,0,1-3.4-1.5l-82.1-90.3A4.4,4.4,0,0,1,512.9,978Z"/><path class="cls-2" d="M834.8,817.4V955.6a31.9,31.9,0,0,1-6.3,19L758,1069.1a20,20,0,0,1-16,8H696a4.8,4.8,0,0,1-4.2-6.9l134.1-255a4.6,4.6,0,0,1,4.2-2.5h0A4.7,4.7,0,0,1,834.8,817.4Z"/><path class="cls-2" d="M846.8,817.2V961.1a4.6,4.6,0,0,0,4.6,4.5h77.4a4.5,4.5,0,0,0,4-6.7L855.4,815.1a4.6,4.6,0,0,0-4-2.4h0A4.6,4.6,0,0,0,846.8,817.2Z"/><path class="cls-2" d="M851.4,978h87a4.6,4.6,0,0,1,4,2.3l49.2,90.4a4.4,4.4,0,0,1-4,6.4H933.4a4.5,4.5,0,0,1-3.4-1.5l-82-90.3A4.4,4.4,0,0,1,851.4,978Z"/><path class="cls-2" d="M1173.3,817.4V955.6a31.9,31.9,0,0,1-6.3,19l-70.4,94.5a20.3,20.3,0,0,1-16.1,8h-46a4.8,4.8,0,0,1-4.2-6.9l134.1-255a4.6,4.6,0,0,1,4.2-2.5h0A4.7,4.7,0,0,1,1173.3,817.4Z"/><path class="cls-2" d="M1185.3,817.2V961.1a4.6,4.6,0,0,0,4.6,4.5h77.4a4.6,4.6,0,0,0,4.1-6.7l-77.5-143.8a4.5,4.5,0,0,0-4-2.4h0A4.6,4.6,0,0,0,1185.3,817.2Z"/><path class="cls-2" d="M1189.9,978h87a4.6,4.6,0,0,1,4,2.3l49.3,90.4a4.4,4.4,0,0,1-4.1,6.4h-54.2a4.5,4.5,0,0,1-3.4-1.5l-82-90.3A4.4,4.4,0,0,1,1189.9,978Z"/><path class="cls-2" d="M1339,940.3V796.5a4.6,4.6,0,0,0-4.6-4.6H1257a4.5,4.5,0,0,0-4,6.7l77.4,143.9a4.6,4.6,0,0,0,4,2.4h0A4.5,4.5,0,0,0,1339,940.3Z"/><path class="cls-2" d="M1334.4,779.6h-86.9a4.6,4.6,0,0,1-4.1-2.4l-49.2-90.3a4.4,4.4,0,0,1,4-6.5h54.2a4.7,4.7,0,0,1,3.4,1.5l82.1,90.4A4.4,4.4,0,0,1,1334.4,779.6Z"/><path class="cls-2" d="M1012.5,940.1V802a31.6,31.6,0,0,1,6.3-19l70.5-94.5a19.8,19.8,0,0,1,16-8.1h46a4.8,4.8,0,0,1,4.2,7l-134.1,255a4.8,4.8,0,0,1-4.2,2.5h0A4.7,4.7,0,0,1,1012.5,940.1Z"/><path class="cls-2" d="M1000.5,940.3V796.5a4.7,4.7,0,0,0-4.6-4.6H918.5a4.5,4.5,0,0,0-4,6.7l77.4,143.9a4.6,4.6,0,0,0,4,2.4h0A4.6,4.6,0,0,0,1000.5,940.3Z"/><path class="cls-2" d="M995.9,779.6H909a4.6,4.6,0,0,1-4.1-2.4l-49.2-90.3a4.4,4.4,0,0,1,4-6.5h54.2a4.9,4.9,0,0,1,3.4,1.5l82,90.4A4.4,4.4,0,0,1,995.9,779.6Z"/><path class="cls-2" d="M674,940.1V802a31.6,31.6,0,0,1,6.3-19l70.5-94.5a19.8,19.8,0,0,1,16-8.1h46a4.8,4.8,0,0,1,4.2,7l-134.1,255a4.8,4.8,0,0,1-4.2,2.5h0A4.7,4.7,0,0,1,674,940.1Z"/><path class="cls-2" d="M662,940.3V796.5a4.7,4.7,0,0,0-4.6-4.6H580a4.6,4.6,0,0,0-4.1,6.7l77.5,143.9a4.5,4.5,0,0,0,4,2.4h0A4.6,4.6,0,0,0,662,940.3Z"/><path class="cls-2" d="M657.4,779.6h-87a4.5,4.5,0,0,1-4-2.4l-49.3-90.3a4.5,4.5,0,0,1,4.1-6.5h54.2a4.9,4.9,0,0,1,3.4,1.5l82,90.4A4.4,4.4,0,0,1,657.4,779.6Z"/><path class="cls-2" d="M335.4,940.1V802a31.7,31.7,0,0,1,6.4-19l70.4-94.5a20.1,20.1,0,0,1,16.1-8.1h45.9a4.8,4.8,0,0,1,4.3,7l-134.1,255a4.8,4.8,0,0,1-4.2,2.5h0A4.8,4.8,0,0,1,335.4,940.1Z"/><path class="cls-2" d="M323.5,940.3V796.5a4.7,4.7,0,0,0-4.6-4.6H241.4a4.6,4.6,0,0,0-4,6.7l77.5,143.9a4.5,4.5,0,0,0,4,2.4h0A4.6,4.6,0,0,0,323.5,940.3Z"/><path class="cls-2" d="M318.9,779.6h-87a4.5,4.5,0,0,1-4-2.4l-49.3-90.3a4.4,4.4,0,0,1,4.1-6.5h54.1a4.9,4.9,0,0,1,3.5,1.5l82,90.4A4.4,4.4,0,0,1,318.9,779.6Z"/><path class="cls-2" d="M1.7,531.1V392.9a31.9,31.9,0,0,1,6.3-19l70.5-94.5a19.9,19.9,0,0,1,16.1-8h45.9a4.7,4.7,0,0,1,4.2,6.9l-134,255a4.9,4.9,0,0,1-4.2,2.5h0A4.7,4.7,0,0,1,1.7,531.1Z"/><path class="cls-2" d="M1.7,940.1V802A31.6,31.6,0,0,1,8,783l70.5-94.5a20,20,0,0,1,16.1-8.1h45.9a4.7,4.7,0,0,1,4.2,7l-134,255a4.9,4.9,0,0,1-4.2,2.5h0A4.7,4.7,0,0,1,1.7,940.1Z"/><path class="cls-2" d="M1339,148.7V4.8a4.6,4.6,0,0,0-4.6-4.6H1257a4.6,4.6,0,0,0-4,6.8l77.4,143.8a4.6,4.6,0,0,0,4,2.4h0A4.5,4.5,0,0,0,1339,148.7Z"/><path class="cls-2" d="M1100.5.2l-79.1,150.5a4.8,4.8,0,0,1-4.2,2.5,4.4,4.4,0,0,1-3.3-1.4,4.4,4.4,0,0,1-1.4-3.4V10.3A31.8,31.8,0,0,1,1014.1.2Z"/><path class="cls-2" d="M1000.5,148.7V4.8A4.7,4.7,0,0,0,995.9.2H918.5a4.6,4.6,0,0,0-4,6.8l77.4,143.8a4.6,4.6,0,0,0,4,2.4h0A4.6,4.6,0,0,0,1000.5,148.7Z"/><path class="cls-2" d="M762,.2,682.9,150.7a4.8,4.8,0,0,1-4.2,2.5,4.4,4.4,0,0,1-3.3-1.4,4.4,4.4,0,0,1-1.4-3.4V10.3A31.8,31.8,0,0,1,675.6.2Z"/><path class="cls-2" d="M662,148.7V4.8A4.7,4.7,0,0,0,657.4.2H580A4.6,4.6,0,0,0,575.9,7l77.5,143.8a4.5,4.5,0,0,0,4,2.4h0A4.6,4.6,0,0,0,662,148.7Z"/><path class="cls-2" d="M423.5.2,344.4,150.7a4.8,4.8,0,0,1-7.6,1.1,4.8,4.8,0,0,1-1.4-3.4V10.3A32,32,0,0,1,337.1.2Z"/><path class="cls-2" d="M323.5,148.7V4.8A4.7,4.7,0,0,0,318.9.2H241.4a4.6,4.6,0,0,0-4,6.8l77.5,143.8a4.5,4.5,0,0,0,4,2.4h0A4.6,4.6,0,0,0,323.5,148.7Z"/><path class="cls-2" d="M89.8.2,10.7,150.7a4.9,4.9,0,0,1-4.2,2.5,4.6,4.6,0,0,1-3.4-1.4,4.4,4.4,0,0,1-1.4-3.4V10.3A34.9,34.9,0,0,1,3.3.2Z"/><path class="cls-2" d="M1506.3,6.1V144.3a31.9,31.9,0,0,1-6.3,19l-70.4,94.5a20,20,0,0,1-16.1,8h-46a4.8,4.8,0,0,1-4.2-6.9l134.1-255a4.8,4.8,0,0,1,4.2-2.5h0A4.7,4.7,0,0,1,1506.3,6.1Z"/><path class="cls-2" d="M1518.3,5.9V149.8a4.6,4.6,0,0,0,4.6,4.5h77.4a4.6,4.6,0,0,0,4.1-6.7L1526.9,3.8a4.5,4.5,0,0,0-4-2.4h0A4.6,4.6,0,0,0,1518.3,5.9Z"/><path class="cls-2" d="M1522.9,166.7h87a4.5,4.5,0,0,1,4,2.4l49.3,90.3a4.4,4.4,0,0,1-4.1,6.4h-54.2a4.5,4.5,0,0,1-3.4-1.5l-82-90.3A4.4,4.4,0,0,1,1522.9,166.7Z"/><path class="cls-2" d="M1506.3,408.4V546.5a31.9,31.9,0,0,1-6.3,19L1429.6,660a20.1,20.1,0,0,1-16.1,8.1h-46a4.8,4.8,0,0,1-4.2-7l134.1-255a4.8,4.8,0,0,1,4.2-2.5h0A4.7,4.7,0,0,1,1506.3,408.4Z"/><path class="cls-2" d="M1518.3,408.1V552a4.7,4.7,0,0,0,4.6,4.6h77.4a4.6,4.6,0,0,0,4.1-6.8L1526.9,406a4.5,4.5,0,0,0-4-2.4h0A4.6,4.6,0,0,0,1518.3,408.1Z"/><path class="cls-2" d="M1522.9,568.9h87a4.5,4.5,0,0,1,4,2.4l49.3,90.3a4.5,4.5,0,0,1-4.1,6.5h-54.2a4.9,4.9,0,0,1-3.4-1.5l-82-90.4A4.4,4.4,0,0,1,1522.9,568.9Z"/><path class="cls-2" d="M1672,531.3V387.4a4.5,4.5,0,0,0-4.6-4.5H1590a4.5,4.5,0,0,0-4,6.7l77.4,143.8a4.6,4.6,0,0,0,4,2.4h0A4.5,4.5,0,0,0,1672,531.3Z"/><path class="cls-2" d="M1667.4,370.5h-86.9a4.6,4.6,0,0,1-4.1-2.4l-49.2-90.3a4.4,4.4,0,0,1,4-6.4h54.2a4.3,4.3,0,0,1,3.4,1.5l82.1,90.3A4.4,4.4,0,0,1,1667.4,370.5Z"/><path class="cls-2" d="M1506.3,817.4V955.6a31.9,31.9,0,0,1-6.3,19l-70.4,94.5a20.3,20.3,0,0,1-16.1,8h-46a4.8,4.8,0,0,1-4.2-6.9l134.1-255a4.6,4.6,0,0,1,4.2-2.5h0A4.7,4.7,0,0,1,1506.3,817.4Z"/><path class="cls-2" d="M1518.3,817.2V961.1a4.6,4.6,0,0,0,4.6,4.5h77.4a4.6,4.6,0,0,0,4.1-6.7l-77.5-143.8a4.5,4.5,0,0,0-4-2.4h0A4.6,4.6,0,0,0,1518.3,817.2Z"/><path class="cls-2" d="M1522.9,978h87a4.6,4.6,0,0,1,4,2.3l49.3,90.4a4.4,4.4,0,0,1-4.1,6.4h-54.2a4.5,4.5,0,0,1-3.4-1.5l-82-90.3A4.4,4.4,0,0,1,1522.9,978Z"/><path class="cls-2" d="M1672,940.3V796.5a4.6,4.6,0,0,0-4.6-4.6H1590a4.5,4.5,0,0,0-4,6.7l77.4,143.9a4.6,4.6,0,0,0,4,2.4h0A4.5,4.5,0,0,0,1672,940.3Z"/><path class="cls-2" d="M1667.4,779.6h-86.9a4.6,4.6,0,0,1-4.1-2.4l-49.2-90.3a4.4,4.4,0,0,1,4-6.5h54.2a4.7,4.7,0,0,1,3.4,1.5l82.1,90.4A4.4,4.4,0,0,1,1667.4,779.6Z"/><path class="cls-2" d="M1350.2,531.1V392.9a32.5,32.5,0,0,1,6.3-19l70.5-94.5a20,20,0,0,1,16.1-8H1489a4.8,4.8,0,0,1,4.3,6.9l-134.1,255a4.8,4.8,0,0,1-4.2,2.5h0A4.8,4.8,0,0,1,1350.2,531.1Z"/><path class="cls-2" d="M1350.2,940.1V802a32.3,32.3,0,0,1,6.3-19l70.5-94.5a20.1,20.1,0,0,1,16.1-8.1H1489a4.8,4.8,0,0,1,4.3,7l-134.1,255a4.8,4.8,0,0,1-4.2,2.5h0A4.8,4.8,0,0,1,1350.2,940.1Z"/><path class="cls-2" d="M1672,148.7V4.8a4.6,4.6,0,0,0-4.6-4.6H1590a4.6,4.6,0,0,0-4,6.8l77.4,143.8a4.6,4.6,0,0,0,4,2.4h0A4.5,4.5,0,0,0,1672,148.7Z"/><path class="cls-2" d="M1438.3.2l-79.1,150.5a4.8,4.8,0,0,1-7.6,1.1,4.8,4.8,0,0,1-1.4-3.4V10.3A32,32,0,0,1,1351.9.2Z"/></g><g class="cls-1"><path class="cls-2" d="M1837.8,6.1V144.3a31.9,31.9,0,0,1-6.3,19L1761,257.8a19.8,19.8,0,0,1-16,8h-46a4.7,4.7,0,0,1-4.2-6.9l134-255a5,5,0,0,1,4.2-2.5h0A4.7,4.7,0,0,1,1837.8,6.1Z"/><path class="cls-2" d="M1849.8,5.9V149.8a4.5,4.5,0,0,0,4.5,4.5h77.5a4.5,4.5,0,0,0,4-6.7L1858.4,3.8a4.6,4.6,0,0,0-4.1-2.4h0A4.5,4.5,0,0,0,1849.8,5.9Z"/><path class="cls-2" d="M1854.4,166.7h86.9a4.6,4.6,0,0,1,4.1,2.4l49.2,90.3a4.4,4.4,0,0,1-4,6.4h-54.2a4.3,4.3,0,0,1-3.4-1.5L1850.9,174A4.4,4.4,0,0,1,1854.4,166.7Z"/><path class="cls-2" d="M1837.8,408.4V546.5a31.9,31.9,0,0,1-6.3,19L1761,660a19.9,19.9,0,0,1-16,8.1h-46a4.7,4.7,0,0,1-4.2-7l134-255a5,5,0,0,1,4.2-2.5h0A4.7,4.7,0,0,1,1837.8,408.4Z"/><path class="cls-2" d="M1849.8,408.1V552a4.6,4.6,0,0,0,4.5,4.6h77.5a4.6,4.6,0,0,0,4-6.8L1858.4,406a4.6,4.6,0,0,0-4.1-2.4h0A4.5,4.5,0,0,0,1849.8,408.1Z"/><path class="cls-2" d="M1854.4,568.9h86.9a4.6,4.6,0,0,1,4.1,2.4l49.2,90.3a4.4,4.4,0,0,1-4,6.5h-54.2a4.7,4.7,0,0,1-3.4-1.5l-82.1-90.4A4.4,4.4,0,0,1,1854.4,568.9Z"/><path class="cls-2" d="M2003.5,531.3V387.4a4.6,4.6,0,0,0-4.6-4.5h-77.5a4.6,4.6,0,0,0-4,6.7l77.5,143.8a4.5,4.5,0,0,0,4,2.4h0A4.6,4.6,0,0,0,2003.5,531.3Z"/><path class="cls-2" d="M1998.9,370.5h-87a4.5,4.5,0,0,1-4-2.4l-49.3-90.3a4.4,4.4,0,0,1,4.1-6.4h54.1a4.5,4.5,0,0,1,3.5,1.5l82,90.3A4.4,4.4,0,0,1,1998.9,370.5Z"/><path class="cls-2" d="M1837.8,817.4V955.6a31.9,31.9,0,0,1-6.3,19l-70.5,94.5a20.1,20.1,0,0,1-16,8h-46a4.7,4.7,0,0,1-4.2-6.9l134-255a4.8,4.8,0,0,1,4.2-2.5h0A4.7,4.7,0,0,1,1837.8,817.4Z"/><path class="cls-2" d="M1849.8,817.2V961.1a4.5,4.5,0,0,0,4.5,4.5h77.5a4.5,4.5,0,0,0,4-6.7l-77.4-143.8a4.6,4.6,0,0,0-4.1-2.4h0A4.5,4.5,0,0,0,1849.8,817.2Z"/><path class="cls-2" d="M1854.4,978h86.9a4.7,4.7,0,0,1,4.1,2.3l49.2,90.4a4.4,4.4,0,0,1-4,6.4h-54.2a4.3,4.3,0,0,1-3.4-1.5l-82.1-90.3A4.4,4.4,0,0,1,1854.4,978Z"/><path class="cls-2" d="M2003.5,940.3V796.5a4.7,4.7,0,0,0-4.6-4.6h-77.5a4.6,4.6,0,0,0-4,6.7l77.5,143.9a4.5,4.5,0,0,0,4,2.4h0A4.6,4.6,0,0,0,2003.5,940.3Z"/><path class="cls-2" d="M1998.9,779.6h-87a4.5,4.5,0,0,1-4-2.4l-49.3-90.3a4.4,4.4,0,0,1,4.1-6.5h54.1a4.9,4.9,0,0,1,3.5,1.5l82,90.4A4.4,4.4,0,0,1,1998.9,779.6Z"/><path class="cls-2" d="M1681.7,531.1V392.9a31.9,31.9,0,0,1,6.3-19l70.5-94.5a19.9,19.9,0,0,1,16.1-8h45.9a4.7,4.7,0,0,1,4.2,6.9l-134,255a4.9,4.9,0,0,1-4.2,2.5h0A4.7,4.7,0,0,1,1681.7,531.1Z"/><path class="cls-2" d="M1681.7,940.1V802a31.6,31.6,0,0,1,6.3-19l70.5-94.5a20,20,0,0,1,16.1-8.1h45.9a4.7,4.7,0,0,1,4.2,7l-134,255a4.9,4.9,0,0,1-4.2,2.5h0A4.7,4.7,0,0,1,1681.7,940.1Z"/><path class="cls-2" d="M2003.5,148.7V4.8a4.7,4.7,0,0,0-4.6-4.6h-77.5a4.6,4.6,0,0,0-4,6.8l77.5,143.8a4.5,4.5,0,0,0,4,2.4h0A4.6,4.6,0,0,0,2003.5,148.7Z"/><path class="cls-2" d="M1769.8.2l-79.1,150.5a4.9,4.9,0,0,1-4.2,2.5,4.6,4.6,0,0,1-3.4-1.4,4.4,4.4,0,0,1-1.4-3.4V10.3A34.9,34.9,0,0,1,1683.3.2Z"/></g></svg>